<?xml version="1.0" encoding="UTF-8" standalone="no"?>
<!DOCTYPE svg PUBLIC "-//W3C//DTD SVG 1.1//EN"
 "http://www.w3.org/Graphics/SVG/1.1/DTD/svg11.dtd">
<!-- Generated by graphviz version 2.43.0 (0)
 -->
<!-- Title: tree Pages: 1 -->
<svg width="718pt" height="476pt"
 viewBox="0.00 0.00 718.13 476.00" xmlns="http://www.w3.org/2000/svg" xmlns:xlink="http://www.w3.org/1999/xlink">
<g id="graph0" class="graph" transform="scale(1 1) rotate(0) translate(4 472)">
<title>tree</title>
<polygon fill="white" stroke="transparent" points="-4,4 -4,-472 714.13,-472 714.13,4 -4,4"/>
<!-- https://api.ohsome.org -->
<g id="node1" class="node">
<title>https://api.ohsome.org</title>
<g id="a_node1"><a xlink:href="https://api.ohsome.org" xlink:title="https://api.ohsome.org">
<ellipse fill="none" stroke="black" cx="451.24" cy="-450" rx="90.18" ry="18"/>
<text text-anchor="middle" x="451.24" y="-446.3" font-family="Times,serif" font-size="14.00">https://api.ohsome.org</text>
</a>
</g>
</g>
<!-- v1 -->
<g id="node2" class="node">
<title>v1</title>
<g id="a_node2"><a xlink:href="https://api.ohsome.org/v1" xlink:title="v1">
<ellipse fill="none" stroke="black" cx="451.24" cy="-378" rx="27" ry="18"/>
<text text-anchor="middle" x="451.24" y="-374.3" font-family="Times,serif" font-size="14.00">v1</text>
</a>
</g>
</g>
<!-- https://api.ohsome.org&#45;&gt;v1 -->
<g id="edge1" class="edge">
<title>https://api.ohsome.org&#45;&gt;v1</title>
<path fill="none" stroke="black" d="M451.24,-431.7C451.24,-423.98 451.24,-414.71 451.24,-406.11"/>
<polygon fill="black" stroke="black" points="454.74,-406.1 451.24,-396.1 447.74,-406.1 454.74,-406.1"/>
</g>
<!-- elements -->
<g id="node3" class="node">
<title>elements</title>
<g id="a_node3"><a xlink:href="https://api.ohsome.org/v1/elements" xlink:title="elements">
<ellipse fill="none" stroke="black" cx="380.24" cy="-306" rx="42.49" ry="18"/>
<text text-anchor="middle" x="380.24" y="-302.3" font-family="Times,serif" font-size="14.00">elements</text>
</a>
</g>
</g>
<!-- v1&#45;&gt;elements -->
<g id="edge2" class="edge">
<title>v1&#45;&gt;elements</title>
<path fill="none" stroke="black" d="M436.52,-362.5C427.02,-353.13 414.45,-340.73 403.59,-330.03"/>
<polygon fill="black" stroke="black" points="405.99,-327.48 396.41,-322.95 401.08,-332.46 405.99,-327.48"/>
</g>
<!-- users -->
<g id="node14" class="node">
<title>users</title>
<g id="a_node14"><a xlink:href="https://api.ohsome.org/v1/users" xlink:title="users">
<ellipse fill="none" stroke="black" cx="201.24" cy="-306" rx="28.7" ry="18"/>
<text text-anchor="middle" x="201.24" y="-302.3" font-family="Times,serif" font-size="14.00">users</text>
</a>
</g>
</g>
<!-- v1&#45;&gt;users -->
<g id="edge3" class="edge">
<title>v1&#45;&gt;users</title>
<path fill="none" stroke="black" d="M426.81,-370.16C382.35,-357.71 288.05,-331.31 236.58,-316.9"/>
<polygon fill="black" stroke="black" points="237.45,-313.51 226.88,-314.18 235.56,-320.25 237.45,-313.51"/>
</g>
<!-- elementsFullHistory -->
<g id="node16" class="node">
<title>elementsFullHistory</title>
<g id="a_node16"><a xlink:href="https://api.ohsome.org/v1/elementsFullHistory" xlink:title="elementsFullHistory">
<ellipse fill="none" stroke="black" cx="523.24" cy="-306" rx="83.39" ry="18"/>
<text text-anchor="middle" x="523.24" y="-302.3" font-family="Times,serif" font-size="14.00">elementsFullHistory</text>
</a>
</g>
</g>
<!-- v1&#45;&gt;elementsFullHistory -->
<g id="edge4" class="edge">
<title>v1&#45;&gt;elementsFullHistory</title>
<path fill="none" stroke="black" d="M465.81,-362.83C475.22,-353.68 487.71,-341.54 498.64,-330.92"/>
<polygon fill="black" stroke="black" points="501.16,-333.34 505.9,-323.86 496.29,-328.32 501.16,-333.34"/>
</g>
<!-- metadata -->
<g id="node17" class="node">
<title>metadata</title>
<g id="a_node17"><a xlink:href="https://api.ohsome.org/v1/metadata" xlink:title="metadata">
<ellipse fill="none" stroke="black" cx="667.24" cy="-306" rx="42.79" ry="18"/>
<text text-anchor="middle" x="667.24" y="-302.3" font-family="Times,serif" font-size="14.00">metadata</text>
</a>
</g>
</g>
<!-- v1&#45;&gt;metadata -->
<g id="edge5" class="edge">
<title>v1&#45;&gt;metadata</title>
<path fill="none" stroke="black" d="M475.14,-369.3C507.08,-359.01 565.44,-340.19 615.24,-324 618.35,-322.99 621.57,-321.94 624.81,-320.88"/>
<polygon fill="black" stroke="black" points="626.09,-324.15 634.51,-317.72 623.92,-317.49 626.09,-324.15"/>
</g>
<!-- area, count, length, perimeter -->
<g id="node4" class="node">
<title>area, count, length, perimeter</title>
<g id="a_node4"><a xlink:href="https://api.ohsome.org/v1/elements/area" xlink:title="area, count, length, perimeter">
<ellipse fill="none" stroke="black" cx="247.24" cy="-234" rx="115.88" ry="18"/>
<text text-anchor="middle" x="247.24" y="-230.3" font-family="Times,serif" font-size="14.00">area, count, length, perimeter</text>
</a>
</g>
</g>
<!-- elements&#45;&gt;area, count, length, perimeter -->
<g id="edge6" class="edge">
<title>elements&#45;&gt;area, count, length, perimeter</title>
<path fill="none" stroke="black" d="M354.59,-291.5C335.57,-281.49 309.27,-267.65 287.46,-256.17"/>
<polygon fill="black" stroke="black" points="288.9,-252.97 278.42,-251.41 285.64,-259.17 288.9,-252.97"/>
</g>
<!-- bbox -->
<g id="node11" class="node">
<title>bbox</title>
<g id="a_node11"><a xlink:href="https://api.ohsome.org/v1/elementsFullHistory/bbox" xlink:title="bbox">
<ellipse fill="none" stroke="black" cx="409.24" cy="-234" rx="28.7" ry="18"/>
<text text-anchor="middle" x="409.24" y="-230.3" font-family="Times,serif" font-size="14.00">bbox</text>
</a>
</g>
</g>
<!-- elements&#45;&gt;bbox -->
<g id="edge7" class="edge">
<title>elements&#45;&gt;bbox</title>
<path fill="none" stroke="black" d="M387.26,-288.05C390.6,-279.97 394.69,-270.12 398.42,-261.11"/>
<polygon fill="black" stroke="black" points="401.69,-262.37 402.28,-251.79 395.22,-259.69 401.69,-262.37"/>
</g>
<!-- centroid -->
<g id="node12" class="node">
<title>centroid</title>
<g id="a_node12"><a xlink:href="https://api.ohsome.org/v1/elementsFullHistory/centroid" xlink:title="centroid">
<ellipse fill="none" stroke="black" cx="495.24" cy="-234" rx="39.79" ry="18"/>
<text text-anchor="middle" x="495.24" y="-230.3" font-family="Times,serif" font-size="14.00">centroid</text>
</a>
</g>
</g>
<!-- elements&#45;&gt;centroid -->
<g id="edge8" class="edge">
<title>elements&#45;&gt;centroid</title>
<path fill="none" stroke="black" d="M403.51,-290.83C420.84,-280.28 444.71,-265.75 463.75,-254.16"/>
<polygon fill="black" stroke="black" points="465.67,-257.09 472.39,-248.91 462.03,-251.12 465.67,-257.09"/>
</g>
<!-- geometry -->
<g id="node13" class="node">
<title>geometry</title>
<g id="a_node13"><a xlink:href="https://api.ohsome.org/v1/elementsFullHistory/geometry" xlink:title="geometry">
<ellipse fill="none" stroke="black" cx="597.24" cy="-234" rx="44.39" ry="18"/>
<text text-anchor="middle" x="597.24" y="-230.3" font-family="Times,serif" font-size="14.00">geometry</text>
</a>
</g>
</g>
<!-- elements&#45;&gt;geometry -->
<g id="edge9" class="edge">
<title>elements&#45;&gt;geometry</title>
<path fill="none" stroke="black" d="M412.32,-294.23C418.59,-292.15 425.11,-290 431.24,-288 481.35,-271.67 494.03,-268.05 544.24,-252 547.36,-251 550.6,-249.97 553.85,-248.92"/>
<polygon fill="black" stroke="black" points="555.14,-252.19 563.59,-245.8 553,-245.52 555.14,-252.19"/>
</g>
<!-- density -->
<g id="node5" class="node">
<title>density</title>
<g id="a_node5"><a xlink:href="https://api.ohsome.org/v1/users/count/density" xlink:title="density">
<ellipse fill="none" stroke="black" cx="232.24" cy="-162" rx="36.29" ry="18"/>
<text text-anchor="middle" x="232.24" y="-158.3" font-family="Times,serif" font-size="14.00">density</text>
</a>
</g>
</g>
<!-- area, count, length, perimeter&#45;&gt;density -->
<g id="edge10" class="edge">
<title>area, count, length, perimeter&#45;&gt;density</title>
<path fill="none" stroke="black" d="M243.53,-215.7C241.87,-207.98 239.89,-198.71 238.05,-190.11"/>
<polygon fill="black" stroke="black" points="241.42,-189.15 235.9,-180.1 234.57,-190.62 241.42,-189.15"/>
</g>
<!-- groupBy/boundary -->
<g id="node6" class="node">
<title>groupBy/boundary</title>
<g id="a_node6"><a xlink:href="https://api.ohsome.org/v1/users/count/groupBy/boundary" xlink:title="groupBy/boundary">
<ellipse fill="none" stroke="black" cx="346.24" cy="-90" rx="77.19" ry="18"/>
<text text-anchor="middle" x="346.24" y="-86.3" font-family="Times,serif" font-size="14.00">groupBy/boundary</text>
</a>
</g>
</g>
<!-- area, count, length, perimeter&#45;&gt;groupBy/boundary -->
<g id="edge12" class="edge">
<title>area, count, length, perimeter&#45;&gt;groupBy/boundary</title>
<path fill="none" stroke="black" d="M326.32,-220.83C349.82,-213.11 373.06,-200.53 387.24,-180 401.28,-159.67 386.19,-133.76 370.5,-115.14"/>
<polygon fill="black" stroke="black" points="373.09,-112.79 363.83,-107.65 367.86,-117.44 373.09,-112.79"/>
</g>
<!-- groupBy/tag -->
<g id="node7" class="node">
<title>groupBy/tag</title>
<g id="a_node7"><a xlink:href="https://api.ohsome.org/v1/users/count/groupBy/tag" xlink:title="groupBy/tag">
<ellipse fill="none" stroke="black" cx="289.24" cy="-18" rx="54.69" ry="18"/>
<text text-anchor="middle" x="289.24" y="-14.3" font-family="Times,serif" font-size="14.00">groupBy/tag</text>
</a>
</g>
</g>
<!-- area, count, length, perimeter&#45;&gt;groupBy/tag -->
<g id="edge13" class="edge">
<title>area, count, length, perimeter&#45;&gt;groupBy/tag</title>
<path fill="none" stroke="black" d="M325.89,-220.66C353.5,-212.93 382.92,-200.37 404.24,-180 429.06,-156.28 425.9,-141.75 432.24,-108 435.19,-92.27 441.37,-85.13 432.24,-72 413.89,-45.64 380.83,-32.36 351.12,-25.69"/>
<polygon fill="black" stroke="black" points="351.69,-22.23 341.19,-23.66 350.29,-29.09 351.69,-22.23"/>
</g>
<!-- groupBy/type -->
<g id="node8" class="node">
<title>groupBy/type</title>
<g id="a_node8"><a xlink:href="https://api.ohsome.org/v1/users/count/groupBy/type" xlink:title="groupBy/type">
<ellipse fill="none" stroke="black" cx="136.24" cy="-90" rx="59.29" ry="18"/>
<text text-anchor="middle" x="136.24" y="-86.3" font-family="Times,serif" font-size="14.00">groupBy/type</text>
</a>
</g>
</g>
<!-- area, count, length, perimeter&#45;&gt;groupBy/type -->
<g id="edge14" class="edge">
<title>area, count, length, perimeter&#45;&gt;groupBy/type</title>
<path fill="none" stroke="black" d="M224.8,-216.15C212.77,-206.42 198.21,-193.47 187.24,-180 171.43,-160.6 157.61,-135.69 148.36,-117.15"/>
<polygon fill="black" stroke="black" points="151.48,-115.56 143.95,-108.11 145.18,-118.63 151.48,-115.56"/>
</g>
<!-- groupBy/key -->
<g id="node9" class="node">
<title>groupBy/key</title>
<g id="a_node9"><a xlink:href="https://api.ohsome.org/v1/users/count/groupBy/key" xlink:title="groupBy/key">
<ellipse fill="none" stroke="black" cx="83.24" cy="-162" rx="56.59" ry="18"/>
<text text-anchor="middle" x="83.24" y="-158.3" font-family="Times,serif" font-size="14.00">groupBy/key</text>
</a>
</g>
</g>
<!-- area, count, length, perimeter&#45;&gt;groupBy/key -->
<g id="edge11" class="edge">
<title>area, count, length, perimeter&#45;&gt;groupBy/key</title>
<path fill="none" stroke="black" d="M209.61,-216.94C184.34,-206.16 151.03,-191.94 124.95,-180.81"/>
<polygon fill="black" stroke="black" points="126.27,-177.56 115.7,-176.86 123.52,-184 126.27,-177.56"/>
</g>
<!-- ratio -->
<g id="node10" class="node">
<title>ratio</title>
<g id="a_node10"><a xlink:href="https://api.ohsome.org/v1/elements/area/ratio" xlink:title="ratio">
<ellipse fill="none" stroke="black" cx="351.24" cy="-162" rx="27" ry="18"/>
<text text-anchor="middle" x="351.24" y="-158.3" font-family="Times,serif" font-size="14.00">ratio</text>
</a>
</g>
</g>
<!-- area, count, length, perimeter&#45;&gt;ratio -->
<g id="edge15" class="edge">
<title>area, count, length, perimeter&#45;&gt;ratio</title>
<path fill="none" stroke="black" d="M271.88,-216.41C287.69,-205.77 308.22,-191.95 324.44,-181.03"/>
<polygon fill="black" stroke="black" points="326.61,-183.8 332.95,-175.31 322.7,-177.99 326.61,-183.8"/>
</g>
<!-- density&#45;&gt;groupBy/boundary -->
<g id="edge16" class="edge">
<title>density&#45;&gt;groupBy/boundary</title>
<path fill="none" stroke="black" d="M250.52,-146.33C265.59,-136.29 287.29,-122.84 306.28,-111.71"/>
<polygon fill="black" stroke="black" points="308.16,-114.67 315.05,-106.63 304.65,-108.61 308.16,-114.67"/>
</g>
<!-- density&#45;&gt;groupBy/boundary -->
<g id="edge28" class="edge">
<title>density&#45;&gt;groupBy/boundary</title>
<path fill="none" stroke="black" d="M257.36,-148.81C274.89,-138.98 298.17,-124.9 316.58,-113.09"/>
<polygon fill="black" stroke="black" points="318.7,-115.89 325.18,-107.51 314.88,-110.02 318.7,-115.89"/>
</g>
<!-- density&#45;&gt;groupBy/tag -->
<g id="edge17" class="edge">
<title>density&#45;&gt;groupBy/tag</title>
<path fill="none" stroke="black" d="M229.86,-143.91C232.37,-125.73 240.89,-96.29 251.24,-72 255.26,-62.55 260.45,-52.57 265.83,-43.85"/>
<polygon fill="black" stroke="black" points="268.89,-45.57 271.47,-35.29 263.05,-41.72 268.89,-45.57"/>
</g>
<!-- density&#45;&gt;groupBy/tag -->
<g id="edge29" class="edge">
<title>density&#45;&gt;groupBy/tag</title>
<path fill="none" stroke="black" d="M242.95,-144.58C250.16,-126.45 258.76,-96.59 269.24,-72 273.02,-63.12 277.83,-53.78 282.02,-45.45"/>
<polygon fill="black" stroke="black" points="285.28,-46.75 286.56,-36.24 279,-43.66 285.28,-46.75"/>
</g>
<!-- density&#45;&gt;groupBy/type -->
<g id="edge18" class="edge">
<title>density&#45;&gt;groupBy/type</title>
<path fill="none" stroke="black" d="M208.77,-147.83C194.23,-138.23 175.74,-124.98 160.99,-113.69"/>
<polygon fill="black" stroke="black" points="162.84,-110.69 152.8,-107.31 158.54,-116.22 162.84,-110.69"/>
</g>
<!-- density&#45;&gt;groupBy/type -->
<g id="edge30" class="edge">
<title>density&#45;&gt;groupBy/type</title>
<path fill="none" stroke="black" d="M216.65,-145.46C204.3,-135.61 186.82,-122.73 171.25,-111.98"/>
<polygon fill="black" stroke="black" points="173.07,-108.99 162.84,-106.25 169.13,-114.77 173.07,-108.99"/>
</g>
<!-- groupBy/boundary&#45;&gt;groupBy/tag -->
<g id="edge19" class="edge">
<title>groupBy/boundary&#45;&gt;groupBy/tag</title>
<path fill="none" stroke="black" d="M326.89,-72.41C319.11,-63.99 310.42,-53.58 303.25,-44.2"/>
<polygon fill="black" stroke="black" points="305.92,-41.92 297.16,-35.96 300.28,-46.08 305.92,-41.92"/>
</g>
<!-- groupBy/boundary&#45;&gt;groupBy/tag -->
<g id="edge20" class="edge">
<title>groupBy/boundary&#45;&gt;groupBy/tag</title>
<path fill="none" stroke="black" d="M338.32,-72.05C332.14,-63.33 323.54,-52.54 315.21,-42.98"/>
<polygon fill="black" stroke="black" points="317.61,-40.41 308.32,-35.31 312.39,-45.09 317.61,-40.41"/>
</g>
<!-- ratio&#45;&gt;groupBy/boundary -->
<g id="edge21" class="edge">
<title>ratio&#45;&gt;groupBy/boundary</title>
<path fill="none" stroke="black" d="M350,-143.7C349.45,-135.98 348.79,-126.71 348.17,-118.11"/>
<polygon fill="black" stroke="black" points="351.66,-117.83 347.46,-108.1 344.68,-118.33 351.66,-117.83"/>
</g>
<!-- count -->
<g id="node15" class="node">
<title>count</title>
<g id="a_node15"><a xlink:href="https://api.ohsome.org/v1/users/count" xlink:title="count">
<ellipse fill="none" stroke="black" cx="83.24" cy="-234" rx="30.59" ry="18"/>
<text text-anchor="middle" x="83.24" y="-230.3" font-family="Times,serif" font-size="14.00">count</text>
</a>
</g>
</g>
<!-- users&#45;&gt;count -->
<g id="edge22" class="edge">
<title>users&#45;&gt;count</title>
<path fill="none" stroke="black" d="M181.22,-293.13C162.46,-282 134.19,-265.23 112.83,-252.56"/>
<polygon fill="black" stroke="black" points="114.53,-249.5 104.15,-247.4 110.96,-255.52 114.53,-249.5"/>
</g>
<!-- count&#45;&gt;density -->
<g id="edge23" class="edge">
<title>count&#45;&gt;density</title>
<path fill="none" stroke="black" d="M106.52,-222.06C131,-210.56 169.8,-192.33 197.82,-179.17"/>
<polygon fill="black" stroke="black" points="199.31,-182.33 206.88,-174.91 196.34,-176 199.31,-182.33"/>
</g>
<!-- count&#45;&gt;groupBy/boundary -->
<g id="edge24" class="edge">
<title>count&#45;&gt;groupBy/boundary</title>
<path fill="none" stroke="black" d="M106.48,-222.04C111.6,-219.86 117.05,-217.72 122.24,-216 189.38,-193.78 217.68,-218.15 277.24,-180 301.65,-164.36 320.93,-136.98 332.83,-116.7"/>
<polygon fill="black" stroke="black" points="335.9,-118.38 337.78,-107.96 329.81,-114.94 335.9,-118.38"/>
</g>
<!-- count&#45;&gt;groupBy/tag -->
<g id="edge26" class="edge">
<title>count&#45;&gt;groupBy/tag</title>
<path fill="none" stroke="black" d="M58.79,-223.15C41.2,-214.61 18.79,-200.39 8.24,-180 -17.01,-131.24 21.59,-100.97 68.24,-72 116.17,-42.23 179.51,-29.18 226.09,-23.46"/>
<polygon fill="black" stroke="black" points="226.53,-26.94 236.06,-22.32 225.73,-19.98 226.53,-26.94"/>
</g>
<!-- count&#45;&gt;groupBy/type -->
<g id="edge27" class="edge">
<title>count&#45;&gt;groupBy/type</title>
<path fill="none" stroke="black" d="M60.67,-221.83C45.31,-212.86 26.19,-198.68 17.24,-180 10.32,-165.57 8.52,-157.42 17.24,-144 30.65,-123.34 54.2,-110.66 76.83,-102.92"/>
<polygon fill="black" stroke="black" points="77.95,-106.24 86.43,-99.89 75.84,-99.56 77.95,-106.24"/>
</g>
<!-- count&#45;&gt;groupBy/key -->
<g id="edge25" class="edge">
<title>count&#45;&gt;groupBy/key</title>
<path fill="none" stroke="black" d="M83.24,-215.7C83.24,-207.98 83.24,-198.71 83.24,-190.11"/>
<polygon fill="black" stroke="black" points="86.74,-190.1 83.24,-180.1 79.74,-190.1 86.74,-190.1"/>
</g>
<!-- elementsFullHistory&#45;&gt;bbox -->
<g id="edge31" class="edge">
<title>elementsFullHistory&#45;&gt;bbox</title>
<path fill="none" stroke="black" d="M496.79,-288.76C479.21,-277.97 456.11,-263.78 438.05,-252.69"/>
<polygon fill="black" stroke="black" points="439.48,-249.46 429.13,-247.21 435.82,-255.43 439.48,-249.46"/>
</g>
<!-- elementsFullHistory&#45;&gt;centroid -->
<g id="edge32" class="edge">
<title>elementsFullHistory&#45;&gt;centroid</title>
<path fill="none" stroke="black" d="M516.46,-288.05C513.22,-279.97 509.28,-270.12 505.68,-261.11"/>
<polygon fill="black" stroke="black" points="508.91,-259.77 501.95,-251.79 502.42,-262.37 508.91,-259.77"/>
</g>
<!-- elementsFullHistory&#45;&gt;geometry -->
<g id="edge33" class="edge">
<title>elementsFullHistory&#45;&gt;geometry</title>
<path fill="none" stroke="black" d="M541.15,-288.05C550.69,-279.03 562.57,-267.79 572.93,-257.99"/>
<polygon fill="black" stroke="black" points="575.64,-260.24 580.5,-250.83 570.83,-255.16 575.64,-260.24"/>
</g>
</g>
</svg>
